<svg width="114" height="44" viewBox="0 0 114 44" fill="none" xmlns="http://www.w3.org/2000/svg">
<path d="M113.969 20.8088L106.373 43.5923C106.292 43.8347 106.065 44 105.809 44H82.1978C81.9394 44 81.7105 43.8335 81.6309 43.5898L81.0089 41.6946C80.8792 41.2991 81.1742 40.8914 81.5905 40.8914H100.912C101.938 40.8914 102.851 40.234 103.175 39.2594L109.448 20.4428C109.531 20.193 109.765 20.024 110.028 20.024H113.402C113.81 20.024 114.098 20.4219 113.969 20.8088Z" fill="#FFF160"/>
<path d="M104.402 17.5754C104.82 17.5754 105.115 17.9843 104.982 18.381L99.0261 36.2463C98.9453 36.4888 98.7176 36.654 98.4617 36.654H78.1489C77.8845 36.654 77.6494 36.4839 77.5674 36.2329L71.6918 18.3577C71.5645 17.9721 71.8522 17.5754 72.2587 17.5754H104.401H104.402Z" fill="#FFF160"/>
<path d="M36.3187 7.14658V22.1262C36.3187 23.2758 35.387 24.2075 34.2373 24.2075H20.913V31.027C20.913 32.1767 19.9813 33.1084 18.8317 33.1084H2.52978C1.38014 33.1084 0.448425 32.1767 0.448425 31.027V11.5737C0.448425 11.2358 0.722674 10.9616 1.06059 10.9616H2.24573C2.58365 10.9616 2.8579 11.2358 2.8579 11.5737V30.454C2.8579 30.5887 2.96808 30.6989 3.10276 30.6989H18.2587C18.3934 30.6989 18.5035 30.5887 18.5035 30.454V7.14658C18.5035 6.81234 18.7717 6.53931 19.1059 6.53442L20.2911 6.51605C20.6326 6.51115 20.913 6.78663 20.913 7.12821V21.7969H33.6656C33.8003 21.7969 33.9104 21.6867 33.9104 21.552V7.14535C33.9104 6.80744 34.1847 6.53319 34.5226 6.53319H35.7065C36.0444 6.53319 36.3187 6.80744 36.3187 7.14535V7.14658Z" fill="#1E3006"/>
<path d="M10.4291 6.5075C9.51455 6.5075 8.74323 7.2776 8.74323 8.19339C8.74323 9.10919 9.51455 9.87929 10.4291 9.87929C11.3437 9.87929 12.1162 9.10919 12.1162 8.19339C12.1162 7.2776 11.3449 6.5075 10.4291 6.5075Z" fill="#1E3006"/>
<path d="M32.4327 29.5652C31.5169 29.5652 30.7455 30.3365 30.7455 31.2523C30.7455 32.1681 31.5169 32.9382 32.4327 32.9382C33.3485 32.9382 34.1186 32.1669 34.1186 31.2523C34.1186 30.3377 33.3472 29.5652 32.4327 29.5652ZM27.6627 29.5652C26.7469 29.5652 25.9768 30.3365 25.9768 31.2523C25.9768 32.1681 26.7469 32.9382 27.6627 32.9382C28.5785 32.9382 29.3486 32.1669 29.3486 31.2523C29.3486 30.3377 28.5785 29.5652 27.6627 29.5652Z" fill="#1E3006"/>
<path d="M42.8358 14.7031C42.8358 10.4633 45.7741 6.56135 50.9775 6.56135C56.6143 6.56135 59.5539 10.4633 59.5539 14.7031V31.027C59.5539 32.1767 58.6222 33.1084 57.4726 33.1084H46.4977C45.8329 33.1084 45.293 32.5697 45.293 31.9037C45.293 31.2388 45.8317 30.6989 46.4977 30.6989H56.9008C57.0355 30.6989 57.1457 30.5887 57.1457 30.454V23.7166C57.1457 23.5819 57.0355 23.4717 56.9008 23.4717H50.9787C45.293 23.4717 42.837 20.051 42.837 14.7031H42.8358ZM50.9775 21.0623H57.1408C57.2754 21.0623 57.3856 20.9521 57.3856 20.8174V14.5097C57.3856 10.6065 54.0126 8.48722 50.9775 8.48722C48.1836 8.48722 44.7628 10.6065 44.7628 14.6064C44.7628 21.0145 49.0504 21.0623 50.9775 21.0623Z" fill="#1E3006"/>
<path d="M107.282 12.1124H101.406L97.5055 0.407905C97.4014 0.0944782 97.0635 -0.0732526 96.7513 0.030815L96.1845 0.219362C95.8723 0.322205 95.7021 0.660119 95.8061 0.973546L99.5195 12.1124H76.2378L79.9511 0.973546C80.0552 0.660119 79.885 0.322205 79.5728 0.219362L79.006 0.030815C78.6938 -0.0732526 78.3558 0.0944782 78.253 0.407905L74.3511 12.1124H68.587C66.9623 12.1124 65.8139 13.7004 66.3207 15.2443L73.8087 38.0277C74.1307 39.006 75.0453 39.6671 76.0762 39.6671H99.6872C100.713 39.6671 101.627 39.0096 101.951 38.0351L108.363 18.7997L109.546 15.2528C110.06 13.7077 108.91 12.1124 107.282 12.1124ZM100.252 37.4707C100.171 37.7131 99.9431 37.8784 99.6872 37.8784H76.0762C75.8178 37.8784 75.5889 37.7119 75.5093 37.4682L68.0201 14.6848C67.8928 14.2991 68.1805 13.9024 68.587 13.9024H107.281C107.688 13.9024 107.976 14.3003 107.847 14.6872L106.476 18.7997L100.252 37.4707Z" fill="#1E3006"/>
<path d="M77.4344 19.3688L76.856 19.5134C76.5365 19.5933 76.3423 19.917 76.4222 20.2365L79.3544 31.962C79.4342 32.2814 79.758 32.4756 80.0774 32.3957L80.6559 32.2511C80.9753 32.1712 81.1695 31.8475 81.0897 31.528L78.1575 19.8025C78.0776 19.4831 77.7539 19.2889 77.4344 19.3688Z" fill="#1E3006"/>
<path d="M97.6105 19.8197L94.6783 31.5451C94.5985 31.8646 94.7927 32.1883 95.1121 32.2682L95.6906 32.4129C96.01 32.4928 96.3338 32.2985 96.4136 31.9791L99.3458 20.2536C99.4257 19.9342 99.2315 19.6104 98.912 19.5305L98.3336 19.3859C98.0142 19.306 97.6904 19.5002 97.6105 19.8197Z" fill="#1E3006"/>
<path d="M88.1761 19.4486H87.5799C87.2506 19.4486 86.9836 19.7155 86.9836 20.0448V31.7347C86.9836 32.064 87.2506 32.3309 87.5799 32.3309H88.1761C88.5054 32.3309 88.7724 32.064 88.7724 31.7347V20.0448C88.7724 19.7155 88.5054 19.4486 88.1761 19.4486Z" fill="#1E3006"/>
</svg>
